<?xml version="1.0" encoding="UTF-8" standalone="no"?>
<svg
   xmlns:dc="http://purl.org/dc/elements/1.1/"
   xmlns:cc="http://creativecommons.org/ns#"
   xmlns:rdf="http://www.w3.org/1999/02/22-rdf-syntax-ns#"
   xmlns:svg="http://www.w3.org/2000/svg"
   xmlns="http://www.w3.org/2000/svg"
   xmlns:sodipodi="http://sodipodi.sourceforge.net/DTD/sodipodi-0.dtd"
   xmlns:inkscape="http://www.inkscape.org/namespaces/inkscape"
   version="1.1"
   x="0px"
   y="0px"
   viewBox="0 0 32 32"
   enable-background="new 0 0 100 100"
   xml:space="preserve"
   id="svg2"
   inkscape:version="0.91 r13725"
   sodipodi:docname="noun_28935_cc.svg"
   width="32"
   height="32"><metadata
     id="metadata16"><rdf:RDF><cc:Work
         rdf:about=""><dc:format>image/svg+xml</dc:format><dc:type
           rdf:resource="http://purl.org/dc/dcmitype/StillImage" /><dc:title></dc:title></cc:Work></rdf:RDF></metadata><defs
     id="defs14" /><sodipodi:namedview
     pagecolor="#ffffff"
     bordercolor="#666666"
     borderopacity="1"
     objecttolerance="10"
     gridtolerance="10"
     guidetolerance="10"
     inkscape:pageopacity="0"
     inkscape:pageshadow="2"
     inkscape:window-width="1069"
     inkscape:window-height="796"
     id="namedview12"
     showgrid="false"
     inkscape:zoom="15.104"
     inkscape:cx="19.011709"
     inkscape:cy="16.615544"
     inkscape:window-x="89"
     inkscape:window-y="100"
     inkscape:window-maximized="0"
     inkscape:current-layer="svg2" /><path
     d="m 28.700237,13.288036 c 0.0046,-0.05399 -0.0047,-0.112666 -0.02744,-0.173961 L 27.864284,10.94511 c -0.09486,-0.253352 -0.393747,-0.460296 -0.663153,-0.460296 l -4.898925,0 0,1.755662 -13.1827971,0 0,-1.755662 -4.8986349,0 c -0.2702821,0 -0.5688759,0.20665 -0.6631534,0.460296 l -0.8088019,2.168965 c -0.022763,0.0613 -0.031527,0.120255 -0.02685,0.173961 -0.090483,0.08903 -0.1456486,0.211613 -0.1456486,0.347629 l 0,8.42835 c 0,0.270574 0.2206615,0.491236 0.4912353,0.491236 l 4.9065155,0 0,4.978902 15.4743521,0 0,-4.979194 4.906516,0 c 0.270282,0 0.490943,-0.220662 0.490943,-0.491236 l 0,-8.428058 c -2.91e-4,-0.136016 -0.05546,-0.258605 -0.145649,-0.347629 z m -6.405615,13.092604 -13.1673264,0 0,-6.920785 13.1670354,0 0,6.920785 2.91e-4,0 z m 2.975724,-9.91052 c -0.636591,0 -1.153222,-0.516336 -1.153222,-1.153512 0,-0.637176 0.516922,-1.153514 1.153222,-1.153514 0.638051,0 1.153805,0.51663 1.153805,1.153514 0,0.636884 -0.516337,1.153512 -1.153805,1.153512 z"
     id="path4"
     inkscape:connector-curvature="0"
     style="fill:#96bf30;fill-opacity:1" /><rect
     x="10.272636"
     y="5.0788884"
     width="10.876353"
     height="6.0080738"
     id="rect6"
     style="fill:#96bf30;fill-opacity:1" /></svg>