<?xml version="1.0" encoding="UTF-8" standalone="no"?>
<!-- Created with Inkscape (http://www.inkscape.org/) -->

<svg
   xmlns:dc="http://purl.org/dc/elements/1.1/"
   xmlns:cc="http://creativecommons.org/ns#"
   xmlns:rdf="http://www.w3.org/1999/02/22-rdf-syntax-ns#"
   xmlns:svg="http://www.w3.org/2000/svg"
   xmlns="http://www.w3.org/2000/svg"
   xmlns:sodipodi="http://sodipodi.sourceforge.net/DTD/sodipodi-0.dtd"
   xmlns:inkscape="http://www.inkscape.org/namespaces/inkscape"
   width="32"
   height="32"
   viewBox="0 0 32 32.000001"
   id="svg4144"
   version="1.1"
   inkscape:version="0.91 r13725"
   sodipodi:docname="avatar.svg">
  <defs
     id="defs4146" />
  <sodipodi:namedview
     id="base"
     pagecolor="#ffffff"
     bordercolor="#666666"
     borderopacity="1.0"
     inkscape:pageopacity="0.0"
     inkscape:pageshadow="2"
     inkscape:zoom="11.2"
     inkscape:cx="6.3005896"
     inkscape:cy="19.141046"
     inkscape:document-units="px"
     inkscape:current-layer="layer1"
     showgrid="false"
     units="px"
     inkscape:window-width="1920"
     inkscape:window-height="1058"
     inkscape:window-x="-8"
     inkscape:window-y="-8"
     inkscape:window-maximized="1" />
  <metadata
     id="metadata4149">
    <rdf:RDF>
      <cc:Work
         rdf:about="">
        <dc:format>image/svg+xml</dc:format>
        <dc:type
           rdf:resource="http://purl.org/dc/dcmitype/StillImage" />
        <dc:title />
      </cc:Work>
    </rdf:RDF>
  </metadata>
  <g
     inkscape:label="Layer 1"
     inkscape:groupmode="layer"
     id="layer1"
     transform="translate(0,-1020.3622)">
    <g
       transform="matrix(0.55554012,0,0,0.55554012,-11.757284,1010.7379)"
       id="g4"
       style="fill:#96bf30;fill-opacity:1">
      <path
         inkscape:connector-curvature="0"
         d="m 63.816,44.142 0,-10.031 c 0,-7.375 -6,-13.375 -13.375,-13.375 -7.375,0 -13.375,6 -13.375,13.375 l 0,4.493 5,0 0,-4.493 c 0,-4.618 3.758,-8.375 8.375,-8.375 4.619,0 8.375,3.757 8.375,8.375 l 0,9.771 -20.459,0 c -3.525,0 -6.393,2.722 -6.393,6.066 l 0,15.5 c 0,3.458 2.551,6.066 5.934,6.066 l 23.672,0 c 3.525,0 6.395,-2.721 6.395,-6.066 l 0,-15.5 c -0.001,-2.816 -1.694,-5.067 -4.149,-5.806 z m -10.102,18.719 -7.5,0 0,-10.501 7.5,0 0,10.501 z"
         id="path6"
         style="fill:#96bf30;fill-opacity:1" />
    </g>
  </g>
</svg>
